<mxfile host="app.diagrams.net" agent="Mozilla/5.0 (Windows NT 10.0; Win64; x64) AppleWebKit/537.36 (KHTML, like Gecko) Chrome/126.0.0.0 Safari/537.36" version="24.7.17">
  <diagram name="Halaman-1" id="_tsL7d4sZbQ_Qa_bjt5w">
    <mxGraphModel dx="1760" dy="868" grid="1" gridSize="10" guides="1" tooltips="1" connect="1" arrows="1" fold="1" page="1" pageScale="1" pageWidth="827" pageHeight="1169" math="0" shadow="0">
      <root>
        <mxCell id="0" />
        <mxCell id="1" parent="0" />
        <mxCell id="erqLwR5r4uaI_n67Z8C1-7" style="edgeStyle=orthogonalEdgeStyle;rounded=0;orthogonalLoop=1;jettySize=auto;html=1;entryX=0.5;entryY=0;entryDx=0;entryDy=0;" edge="1" parent="1" source="erqLwR5r4uaI_n67Z8C1-1" target="erqLwR5r4uaI_n67Z8C1-2">
          <mxGeometry relative="1" as="geometry" />
        </mxCell>
        <mxCell id="erqLwR5r4uaI_n67Z8C1-1" value="&lt;font style=&quot;font-size: 18px;&quot;&gt;Start&lt;/font&gt;" style="ellipse;whiteSpace=wrap;html=1;" vertex="1" parent="1">
          <mxGeometry x="103" y="30" width="120" height="80" as="geometry" />
        </mxCell>
        <mxCell id="erqLwR5r4uaI_n67Z8C1-9" style="edgeStyle=orthogonalEdgeStyle;rounded=0;orthogonalLoop=1;jettySize=auto;html=1;entryX=0;entryY=0.5;entryDx=0;entryDy=0;" edge="1" parent="1" source="erqLwR5r4uaI_n67Z8C1-2" target="erqLwR5r4uaI_n67Z8C1-5">
          <mxGeometry relative="1" as="geometry" />
        </mxCell>
        <mxCell id="erqLwR5r4uaI_n67Z8C1-2" value="&lt;font style=&quot;font-size: 15px;&quot;&gt;Input Status&lt;/font&gt;&lt;div style=&quot;font-size: 15px;&quot;&gt;&lt;font style=&quot;font-size: 15px;&quot;&gt;Member&lt;/font&gt;&lt;/div&gt;" style="shape=parallelogram;html=1;strokeWidth=2;perimeter=parallelogramPerimeter;whiteSpace=wrap;rounded=1;arcSize=12;size=0.23;" vertex="1" parent="1">
          <mxGeometry x="100" y="170" width="126" height="70" as="geometry" />
        </mxCell>
        <mxCell id="erqLwR5r4uaI_n67Z8C1-5" value="&lt;span style=&quot;font-size: 15px;&quot;&gt;Input Total&lt;/span&gt;&lt;div&gt;&lt;span style=&quot;font-size: 15px;&quot;&gt;Bayar&lt;/span&gt;&lt;/div&gt;" style="shape=parallelogram;html=1;strokeWidth=2;perimeter=parallelogramPerimeter;whiteSpace=wrap;rounded=1;arcSize=12;size=0.23;" vertex="1" parent="1">
          <mxGeometry x="270" y="170" width="126" height="70" as="geometry" />
        </mxCell>
        <mxCell id="erqLwR5r4uaI_n67Z8C1-10" value="" style="strokeWidth=2;html=1;shape=mxgraph.flowchart.decision;whiteSpace=wrap;" vertex="1" parent="1">
          <mxGeometry x="283" y="280" width="100" height="100" as="geometry" />
        </mxCell>
        <mxCell id="erqLwR5r4uaI_n67Z8C1-11" style="edgeStyle=orthogonalEdgeStyle;rounded=0;orthogonalLoop=1;jettySize=auto;html=1;entryX=0.5;entryY=0;entryDx=0;entryDy=0;entryPerimeter=0;" edge="1" parent="1" source="erqLwR5r4uaI_n67Z8C1-5" target="erqLwR5r4uaI_n67Z8C1-10">
          <mxGeometry relative="1" as="geometry" />
        </mxCell>
        <mxCell id="erqLwR5r4uaI_n67Z8C1-17" value="" style="edgeStyle=orthogonalEdgeStyle;rounded=0;orthogonalLoop=1;jettySize=auto;html=1;entryX=0.5;entryY=0;entryDx=0;entryDy=0;" edge="1" parent="1" source="erqLwR5r4uaI_n67Z8C1-12" target="erqLwR5r4uaI_n67Z8C1-16">
          <mxGeometry relative="1" as="geometry">
            <Array as="points">
              <mxPoint x="443" y="380" />
            </Array>
          </mxGeometry>
        </mxCell>
        <mxCell id="erqLwR5r4uaI_n67Z8C1-19" value="&lt;font style=&quot;font-size: 14px;&quot;&gt;Lebih Dari 1.000.000&lt;/font&gt;" style="edgeLabel;html=1;align=center;verticalAlign=middle;resizable=0;points=[];" vertex="1" connectable="0" parent="erqLwR5r4uaI_n67Z8C1-17">
          <mxGeometry x="0.4079" y="1" relative="1" as="geometry">
            <mxPoint x="-1" y="23" as="offset" />
          </mxGeometry>
        </mxCell>
        <mxCell id="erqLwR5r4uaI_n67Z8C1-22" value="" style="edgeStyle=orthogonalEdgeStyle;rounded=0;orthogonalLoop=1;jettySize=auto;html=1;" edge="1" parent="1" source="erqLwR5r4uaI_n67Z8C1-12" target="erqLwR5r4uaI_n67Z8C1-21">
          <mxGeometry relative="1" as="geometry" />
        </mxCell>
        <mxCell id="erqLwR5r4uaI_n67Z8C1-26" value="&lt;span style=&quot;font-size: 14px;&quot;&gt;Kurang Dari 1.000.000&lt;/span&gt;&lt;div&gt;&lt;span style=&quot;font-size: 14px;&quot;&gt;Lebih Dari 500.000&lt;/span&gt;&lt;/div&gt;" style="edgeLabel;html=1;align=center;verticalAlign=middle;resizable=0;points=[];" vertex="1" connectable="0" parent="erqLwR5r4uaI_n67Z8C1-22">
          <mxGeometry x="-0.1905" y="-3" relative="1" as="geometry">
            <mxPoint x="3" y="-3" as="offset" />
          </mxGeometry>
        </mxCell>
        <mxCell id="erqLwR5r4uaI_n67Z8C1-25" value="" style="edgeStyle=orthogonalEdgeStyle;rounded=0;orthogonalLoop=1;jettySize=auto;html=1;" edge="1" parent="1" source="erqLwR5r4uaI_n67Z8C1-12" target="erqLwR5r4uaI_n67Z8C1-24">
          <mxGeometry relative="1" as="geometry" />
        </mxCell>
        <mxCell id="erqLwR5r4uaI_n67Z8C1-28" value="&lt;span style=&quot;font-size: 14px;&quot;&gt;Kurang Dari 500.000&lt;/span&gt;" style="edgeLabel;html=1;align=center;verticalAlign=middle;resizable=0;points=[];" vertex="1" connectable="0" parent="erqLwR5r4uaI_n67Z8C1-25">
          <mxGeometry x="0.5745" relative="1" as="geometry">
            <mxPoint y="-1" as="offset" />
          </mxGeometry>
        </mxCell>
        <mxCell id="erqLwR5r4uaI_n67Z8C1-12" value="" style="strokeWidth=2;html=1;shape=mxgraph.flowchart.decision;whiteSpace=wrap;" vertex="1" parent="1">
          <mxGeometry x="560" y="330" width="100" height="100" as="geometry" />
        </mxCell>
        <mxCell id="erqLwR5r4uaI_n67Z8C1-15" style="edgeStyle=orthogonalEdgeStyle;rounded=0;orthogonalLoop=1;jettySize=auto;html=1;entryX=0.5;entryY=0;entryDx=0;entryDy=0;entryPerimeter=0;exitX=1;exitY=0.5;exitDx=0;exitDy=0;exitPerimeter=0;" edge="1" parent="1" source="erqLwR5r4uaI_n67Z8C1-10" target="erqLwR5r4uaI_n67Z8C1-12">
          <mxGeometry relative="1" as="geometry">
            <Array as="points">
              <mxPoint x="460" y="330" />
              <mxPoint x="460" y="330" />
            </Array>
          </mxGeometry>
        </mxCell>
        <mxCell id="erqLwR5r4uaI_n67Z8C1-29" value="&lt;font style=&quot;font-size: 14px;&quot;&gt;NonMember&lt;/font&gt;" style="edgeLabel;html=1;align=center;verticalAlign=middle;resizable=0;points=[];" vertex="1" connectable="0" parent="erqLwR5r4uaI_n67Z8C1-15">
          <mxGeometry x="-0.0288" relative="1" as="geometry">
            <mxPoint as="offset" />
          </mxGeometry>
        </mxCell>
        <mxCell id="erqLwR5r4uaI_n67Z8C1-45" style="edgeStyle=orthogonalEdgeStyle;rounded=0;orthogonalLoop=1;jettySize=auto;html=1;entryX=0.5;entryY=0;entryDx=0;entryDy=0;" edge="1" parent="1" source="erqLwR5r4uaI_n67Z8C1-16" target="erqLwR5r4uaI_n67Z8C1-42">
          <mxGeometry relative="1" as="geometry" />
        </mxCell>
        <mxCell id="erqLwR5r4uaI_n67Z8C1-16" value="&lt;font style=&quot;font-size: 14px;&quot;&gt;Mendapat Diskon&lt;/font&gt;&lt;div style=&quot;font-size: 14px;&quot;&gt;&lt;font style=&quot;font-size: 14px;&quot;&gt;10%&lt;/font&gt;&lt;/div&gt;" style="rounded=1;whiteSpace=wrap;html=1;strokeWidth=2;" vertex="1" parent="1">
          <mxGeometry x="383" y="510" width="120" height="60" as="geometry" />
        </mxCell>
        <mxCell id="erqLwR5r4uaI_n67Z8C1-46" style="edgeStyle=orthogonalEdgeStyle;rounded=0;orthogonalLoop=1;jettySize=auto;html=1;entryX=1;entryY=0.25;entryDx=0;entryDy=0;" edge="1" parent="1" source="erqLwR5r4uaI_n67Z8C1-21" target="erqLwR5r4uaI_n67Z8C1-42">
          <mxGeometry relative="1" as="geometry">
            <Array as="points">
              <mxPoint x="610" y="745" />
            </Array>
          </mxGeometry>
        </mxCell>
        <mxCell id="erqLwR5r4uaI_n67Z8C1-21" value="&lt;font style=&quot;font-size: 14px;&quot;&gt;Mendapat Diskon&lt;/font&gt;&lt;div style=&quot;font-size: 14px;&quot;&gt;&lt;font style=&quot;font-size: 14px;&quot;&gt;5%&lt;/font&gt;&lt;/div&gt;" style="rounded=1;whiteSpace=wrap;html=1;strokeWidth=2;" vertex="1" parent="1">
          <mxGeometry x="550" y="510" width="120" height="60" as="geometry" />
        </mxCell>
        <mxCell id="erqLwR5r4uaI_n67Z8C1-47" style="edgeStyle=orthogonalEdgeStyle;rounded=0;orthogonalLoop=1;jettySize=auto;html=1;entryX=1;entryY=0.75;entryDx=0;entryDy=0;" edge="1" parent="1" source="erqLwR5r4uaI_n67Z8C1-24" target="erqLwR5r4uaI_n67Z8C1-42">
          <mxGeometry relative="1" as="geometry">
            <Array as="points">
              <mxPoint x="767" y="775" />
            </Array>
          </mxGeometry>
        </mxCell>
        <mxCell id="erqLwR5r4uaI_n67Z8C1-24" value="&lt;font style=&quot;font-size: 15px;&quot;&gt;Tidak Mendapat Diskon&lt;/font&gt;" style="rounded=1;whiteSpace=wrap;html=1;strokeWidth=2;" vertex="1" parent="1">
          <mxGeometry x="707" y="510" width="120" height="60" as="geometry" />
        </mxCell>
        <mxCell id="erqLwR5r4uaI_n67Z8C1-37" value="" style="edgeStyle=orthogonalEdgeStyle;rounded=0;orthogonalLoop=1;jettySize=auto;html=1;exitX=1;exitY=0.5;exitDx=0;exitDy=0;exitPerimeter=0;" edge="1" parent="1" source="erqLwR5r4uaI_n67Z8C1-32" target="erqLwR5r4uaI_n67Z8C1-36">
          <mxGeometry relative="1" as="geometry" />
        </mxCell>
        <mxCell id="erqLwR5r4uaI_n67Z8C1-41" value="&lt;span style=&quot;font-size: 14px;&quot;&gt;Kurang Dari 1.000.000&lt;/span&gt;" style="edgeLabel;html=1;align=center;verticalAlign=middle;resizable=0;points=[];" vertex="1" connectable="0" parent="erqLwR5r4uaI_n67Z8C1-37">
          <mxGeometry x="0.2974" y="-1" relative="1" as="geometry">
            <mxPoint x="1" y="2" as="offset" />
          </mxGeometry>
        </mxCell>
        <mxCell id="erqLwR5r4uaI_n67Z8C1-39" value="" style="edgeStyle=orthogonalEdgeStyle;rounded=0;orthogonalLoop=1;jettySize=auto;html=1;exitX=0;exitY=0.5;exitDx=0;exitDy=0;exitPerimeter=0;" edge="1" parent="1" source="erqLwR5r4uaI_n67Z8C1-32" target="erqLwR5r4uaI_n67Z8C1-38">
          <mxGeometry relative="1" as="geometry" />
        </mxCell>
        <mxCell id="erqLwR5r4uaI_n67Z8C1-40" value="&lt;font style=&quot;font-size: 14px;&quot;&gt;Lebih Dari 1.000.000&lt;/font&gt;" style="edgeLabel;html=1;align=center;verticalAlign=middle;resizable=0;points=[];" vertex="1" connectable="0" parent="erqLwR5r4uaI_n67Z8C1-39">
          <mxGeometry x="0.2263" y="2" relative="1" as="geometry">
            <mxPoint x="-2" y="7" as="offset" />
          </mxGeometry>
        </mxCell>
        <mxCell id="erqLwR5r4uaI_n67Z8C1-32" value="" style="strokeWidth=2;html=1;shape=mxgraph.flowchart.decision;whiteSpace=wrap;" vertex="1" parent="1">
          <mxGeometry x="113" y="330" width="100" height="100" as="geometry" />
        </mxCell>
        <mxCell id="erqLwR5r4uaI_n67Z8C1-34" style="edgeStyle=orthogonalEdgeStyle;rounded=0;orthogonalLoop=1;jettySize=auto;html=1;entryX=0.5;entryY=0;entryDx=0;entryDy=0;entryPerimeter=0;" edge="1" parent="1" source="erqLwR5r4uaI_n67Z8C1-10" target="erqLwR5r4uaI_n67Z8C1-32">
          <mxGeometry relative="1" as="geometry">
            <Array as="points">
              <mxPoint x="210" y="330" />
              <mxPoint x="210" y="330" />
            </Array>
          </mxGeometry>
        </mxCell>
        <mxCell id="erqLwR5r4uaI_n67Z8C1-35" value="&lt;font style=&quot;font-size: 14px;&quot;&gt;Member&lt;/font&gt;" style="edgeLabel;html=1;align=center;verticalAlign=middle;resizable=0;points=[];" vertex="1" connectable="0" parent="erqLwR5r4uaI_n67Z8C1-34">
          <mxGeometry x="-0.1118" relative="1" as="geometry">
            <mxPoint as="offset" />
          </mxGeometry>
        </mxCell>
        <mxCell id="erqLwR5r4uaI_n67Z8C1-43" value="" style="edgeStyle=orthogonalEdgeStyle;rounded=0;orthogonalLoop=1;jettySize=auto;html=1;exitX=0.5;exitY=1;exitDx=0;exitDy=0;entryX=0;entryY=0.25;entryDx=0;entryDy=0;" edge="1" parent="1" source="erqLwR5r4uaI_n67Z8C1-36" target="erqLwR5r4uaI_n67Z8C1-42">
          <mxGeometry relative="1" as="geometry">
            <Array as="points">
              <mxPoint x="260" y="745" />
            </Array>
          </mxGeometry>
        </mxCell>
        <mxCell id="erqLwR5r4uaI_n67Z8C1-36" value="&lt;font style=&quot;font-size: 14px;&quot;&gt;Mendapat Diskon&lt;/font&gt;&lt;div style=&quot;font-size: 14px;&quot;&gt;&lt;font style=&quot;font-size: 14px;&quot;&gt;15%&lt;/font&gt;&lt;/div&gt;" style="rounded=1;whiteSpace=wrap;html=1;strokeWidth=2;" vertex="1" parent="1">
          <mxGeometry x="200" y="510" width="120" height="60" as="geometry" />
        </mxCell>
        <mxCell id="erqLwR5r4uaI_n67Z8C1-44" style="edgeStyle=orthogonalEdgeStyle;rounded=0;orthogonalLoop=1;jettySize=auto;html=1;exitX=0.5;exitY=1;exitDx=0;exitDy=0;entryX=0;entryY=0.75;entryDx=0;entryDy=0;" edge="1" parent="1" source="erqLwR5r4uaI_n67Z8C1-38" target="erqLwR5r4uaI_n67Z8C1-42">
          <mxGeometry relative="1" as="geometry">
            <mxPoint x="380" y="770" as="targetPoint" />
            <Array as="points">
              <mxPoint x="70" y="775" />
            </Array>
          </mxGeometry>
        </mxCell>
        <mxCell id="erqLwR5r4uaI_n67Z8C1-38" value="&lt;font style=&quot;font-size: 14px;&quot;&gt;Mendapat Diskon&lt;/font&gt;&lt;div style=&quot;font-size: 14px;&quot;&gt;&lt;font style=&quot;font-size: 14px;&quot;&gt;10%&lt;/font&gt;&lt;/div&gt;" style="rounded=1;whiteSpace=wrap;html=1;strokeWidth=2;" vertex="1" parent="1">
          <mxGeometry x="10" y="510" width="120" height="60" as="geometry" />
        </mxCell>
        <mxCell id="erqLwR5r4uaI_n67Z8C1-49" value="" style="edgeStyle=orthogonalEdgeStyle;rounded=0;orthogonalLoop=1;jettySize=auto;html=1;" edge="1" parent="1" source="erqLwR5r4uaI_n67Z8C1-42" target="erqLwR5r4uaI_n67Z8C1-48">
          <mxGeometry relative="1" as="geometry" />
        </mxCell>
        <mxCell id="erqLwR5r4uaI_n67Z8C1-42" value="&lt;font style=&quot;font-size: 14px;&quot;&gt;Hitung Total Bayar&lt;/font&gt;" style="rounded=1;whiteSpace=wrap;html=1;strokeWidth=2;" vertex="1" parent="1">
          <mxGeometry x="383" y="730" width="120" height="60" as="geometry" />
        </mxCell>
        <mxCell id="erqLwR5r4uaI_n67Z8C1-51" style="edgeStyle=orthogonalEdgeStyle;rounded=0;orthogonalLoop=1;jettySize=auto;html=1;entryX=0.5;entryY=0;entryDx=0;entryDy=0;" edge="1" parent="1" source="erqLwR5r4uaI_n67Z8C1-48" target="erqLwR5r4uaI_n67Z8C1-50">
          <mxGeometry relative="1" as="geometry" />
        </mxCell>
        <mxCell id="erqLwR5r4uaI_n67Z8C1-48" value="&lt;font style=&quot;font-size: 14px;&quot;&gt;Output Total Bayar&lt;/font&gt;" style="rounded=1;whiteSpace=wrap;html=1;strokeWidth=2;" vertex="1" parent="1">
          <mxGeometry x="383" y="840" width="120" height="60" as="geometry" />
        </mxCell>
        <mxCell id="erqLwR5r4uaI_n67Z8C1-50" value="&lt;font style=&quot;font-size: 18px;&quot;&gt;Stop&lt;/font&gt;" style="ellipse;whiteSpace=wrap;html=1;" vertex="1" parent="1">
          <mxGeometry x="383" y="950" width="120" height="80" as="geometry" />
        </mxCell>
      </root>
    </mxGraphModel>
  </diagram>
</mxfile>
